<svg width="24" height="24" viewBox="0 0 24 24" fill="#8FA3B0" xmlns="http://www.w3.org/2000/svg">
<path d="M12 0C5.3725 0 0 5.3725 0 12C0 18.6275 5.3725 24 12 24C18.6275 24 24 18.6275 24 12C24 5.3725 18.6275 0 12 0ZM12 22C6.477 22 2 17.523 2 12C2 6.477 6.477 2 12 2C17.523 2 22 6.477 22 12C22 17.523 17.523 22 12 22Z"/>
<path d="M12 8.4845C12.5523 8.4845 13 8.03678 13 7.4845C13 6.93221 12.5523 6.4845 12 6.4845C11.4477 6.4845 11 6.93221 11 7.4845C11 8.03678 11.4477 8.4845 12 8.4845Z"/>
<path d="M12.9995 9.9845H11.001V17.5H12.9995V9.9845Z"/>
</svg>