<svg width="24" height="24" viewBox="0 0 24 24" fill="#8FA3B0" xmlns="http://www.w3.org/2000/svg">
<path d="M17.101 7.48901L14.213 10.3775L14.218 10.382L10.2795 14.3205L6.8955 10.9355L5.798 12.033L9.677 15.9125L9.6735 15.9165L10.2685 16.5105L10.272 16.508L10.2755 16.5105L10.541 16.246L10.5435 16.2485L15.3135 11.4785L18.202 8.59001L17.101 7.48901Z"/>
<path d="M12 0C5.3725 0 0 5.3725 0 12C0 18.6275 5.3725 24 12 24C18.6275 24 24 18.6275 24 12C24 5.3725 18.6275 0 12 0ZM12 22C6.477 22 2 17.523 2 12C2 6.477 6.477 2 12 2C17.523 2 22 6.477 22 12C22 17.523 17.523 22 12 22Z"/>
</svg>
